<svg width="180" height="50" viewBox="0 0 180 50" fill="none" xmlns="http://www.w3.org/2000/svg">
  <!-- Icon -->
  <g id="icon">
    <!-- Waves -->
    <path d="M8 15C11 15 11 18 14 18C17 18 17 15 20 15C23 15 23 18 26 18" 
          stroke="#3498DB" 
          stroke-width="2.5" 
          stroke-linecap="round" 
          fill="none"/>
    <path d="M8 22C11 22 11 25 14 25C17 25 17 22 20 22C23 22 23 25 26 25" 
          stroke="#3498DB" 
          stroke-width="2.5" 
          stroke-linecap="round" 
          fill="none"/>
    <path d="M8 29C11 29 11 32 14 32C17 32 17 29 20 29C23 29 23 32 26 32" 
          stroke="#3498DB" 
          stroke-width="2.5" 
          stroke-linecap="round" 
          fill="none"/>
    
    <!-- Brackets -->
    <path d="M5 12 L2 23 L5 34" 
          stroke="#2C3E50" 
          stroke-width="2.5" 
          stroke-linecap="round" 
          fill="none"/>
    <path d="M29 12 L32 23 L29 34" 
          stroke="#2C3E50" 
          stroke-width="2.5" 
          stroke-linecap="round" 
          fill="none"/>
  </g>
  
  <!-- Text -->
  <text x="42" y="32" 
        font-family="'Inter', 'Helvetica', 'Arial', sans-serif" 
        font-size="24" 
        font-weight="700" 
        fill="#2C3E50">
    Río<tspan fill="#3498DB">Code</tspan>
  </text>
</svg>
